<svg xmlns="http://www.w3.org/2000/svg" viewBox="0 0 75.98 16.89"><defs><style>.cls-1{isolation:isolate;}.cls-2{fill:#989a9d;opacity:0.5;mix-blend-mode:multiply;}.cls-3{fill:#df0022;}.cls-4{fill:#840000;}.cls-5{fill:#780e1d;}.cls-6{fill:#600;}.cls-7{fill:#fff;}.cls-8{fill:#b7df00;}.cls-9{fill:#588400;}.cls-10{fill:#657b0b;}.cls-11{fill:#460;}.cls-12{fill:#007bdf;}.cls-13{fill:#003584;}.cls-14{fill:#0e4778;}.cls-15{fill:#002966;}.cls-16{fill:#f3c600;}.cls-17{fill:#e8a600;}.cls-18{fill:#f2b200;}.cls-19{fill:#d88a00;}</style></defs><title>Asset 2</title><g class="cls-1"><g id="Layer_2" data-name="Layer 2"><g id="Layer_1-2" data-name="Layer 1"><path class="cls-2" d="M472.66,200.05a6.91,6.91,0,1,1-9.07-3.63A6.88,6.88,0,0,1,472.66,200.05Z" transform="translate(-459.4 -193.46)"/><path class="cls-3" d="M472.52,199.92a6.27,6.27,0,1,1-8.24-3.29A6.27,6.27,0,0,1,472.52,199.92Z" transform="translate(-459.4 -193.46)"/><path class="cls-4" d="M466.75,196.12a6.27,6.27,0,0,1,2.48,12,6.27,6.27,0,0,1-5-11.53,6.32,6.32,0,0,1,2.47-.51m0-.26h0a6.34,6.34,0,0,0-2.57.54,6.53,6.53,0,0,0-3.43,8.57,6.53,6.53,0,1,0,6-9.11Z" transform="translate(-459.4 -193.46)"/><path class="cls-3" d="M473.13,199.28a6.27,6.27,0,1,1-8.24-3.3A6.28,6.28,0,0,1,473.13,199.28Z" transform="translate(-459.4 -193.46)"/><path class="cls-4" d="M467.36,195.48a6.27,6.27,0,0,1,2.48,12,6.39,6.39,0,0,1-2.47.51A6.28,6.28,0,0,1,464.89,196a6.38,6.38,0,0,1,2.47-.5m0-.26h0a6.54,6.54,0,0,0,0,13.07,6.34,6.34,0,0,0,2.57-.54,6.53,6.53,0,0,0-2.58-12.53Z" transform="translate(-459.4 -193.46)"/><path class="cls-5" d="M473.4,202.71l-.78-.9a4.65,4.65,0,0,0-4.67-5.48l-1.1-1.29-2.29,2.86a4.65,4.65,0,0,0,5.78,7.13l.27-.17h0l.21-.17.15-.11Z" transform="translate(-459.4 -193.46)"/><path class="cls-6" d="M466.85,195l1.1,1.29H468a4.64,4.64,0,0,1,4,2.36,4.59,4.59,0,0,1,.53,3.12l.78.9L471,204.59l-.15.11-.21.17h0l-.27.17a4.65,4.65,0,0,1-5.78-7.13l2.29-2.86m0-.4-.2.24-2.29,2.85a4.91,4.91,0,0,0,3.69,8.16,4.86,4.86,0,0,0,2.41-.64l.1-.06,0,0,.2-.14.21-.16.12-.1,0,0,2.41-1.87.21-.17-.17-.2-.7-.82a4.91,4.91,0,0,0-4.83-5.66l-1-1.19-.19-.24Z" transform="translate(-459.4 -193.46)"/><path class="cls-3" d="M475.29,198.57a4.81,4.81,0,0,0-.65-2.29,5,5,0,1,0,.65,2.29Z" transform="translate(-459.4 -193.46)"/><path class="cls-4" d="M470.25,193.72a5,5,0,0,1,4.39,2.56,4.81,4.81,0,0,1,.65,2.29,5,5,0,0,1-5,5.24,5.1,5.1,0,0,1-4.41-2.56,5,5,0,0,1,1.91-6.87,5,5,0,0,1,2.48-.66m0-.26a5.33,5.33,0,0,0-2.61.69,5.32,5.32,0,0,0-2,7.23,5.38,5.38,0,0,0,4.63,2.69,5.3,5.3,0,0,0,5.28-5.51,5.2,5.2,0,0,0-.68-2.41,5.32,5.32,0,0,0-4.62-2.69Z" transform="translate(-459.4 -193.46)"/><path class="cls-7" d="M467.76,196.42a4.62,4.62,0,0,1,3.49-1.61,3.79,3.79,0,0,0-4.68,5.39l.05.09A5.43,5.43,0,0,1,467.76,196.42Z" transform="translate(-459.4 -193.46)"/><path class="cls-2" d="M532.57,200.46a6.91,6.91,0,1,1-9.07-3.63A6.91,6.91,0,0,1,532.57,200.46Z" transform="translate(-459.4 -193.46)"/><path class="cls-8" d="M532.34,199.92a6.27,6.27,0,1,1-8.24-3.29A6.27,6.27,0,0,1,532.34,199.92Z" transform="translate(-459.4 -193.46)"/><path class="cls-9" d="M526.57,196.12a6.28,6.28,0,1,1-2.47.51,6.39,6.39,0,0,1,2.47-.51m0-.26h0a6.34,6.34,0,0,0-2.57.54,6.53,6.53,0,1,0,8.57,3.42,6.52,6.52,0,0,0-6-4Z" transform="translate(-459.4 -193.46)"/><path class="cls-8" d="M533,199.28a6.27,6.27,0,1,1-8.24-3.3A6.28,6.28,0,0,1,533,199.28Z" transform="translate(-459.4 -193.46)"/><path class="cls-9" d="M527.18,195.48a6.27,6.27,0,0,1,2.48,12,6.35,6.35,0,0,1-2.47.51A6.28,6.28,0,0,1,524.71,196a6.38,6.38,0,0,1,2.47-.5m0-.26h0a6.54,6.54,0,0,0,0,13.07,6.42,6.42,0,0,0,2.58-.54,6.53,6.53,0,0,0-2.59-12.53Z" transform="translate(-459.4 -193.46)"/><path class="cls-10" d="M533.22,202.71l-.78-.9a4.65,4.65,0,0,0-4.67-5.48l-1.1-1.29-2.29,2.86a4.65,4.65,0,0,0,5.78,7.13l.27-.17h0l.21-.17.15-.11Z" transform="translate(-459.4 -193.46)"/><path class="cls-11" d="M526.67,195l1.1,1.29h.09a4.64,4.64,0,0,1,4,2.36,4.59,4.59,0,0,1,.53,3.12l.78.9-2.42,1.88-.15.11-.21.17h0l-.27.17a4.65,4.65,0,0,1-5.78-7.13l2.29-2.86m0-.4-.2.24-2.29,2.85a4.91,4.91,0,0,0,3.69,8.16,4.86,4.86,0,0,0,2.41-.64l.1-.06h0l.2-.13.21-.16.12-.1,0,0,2.43-1.87.21-.17-.18-.2-.7-.82a4.81,4.81,0,0,0-.58-3.17,4.89,4.89,0,0,0-4.24-2.49l-1-1.19-.2-.24Z" transform="translate(-459.4 -193.46)"/><path class="cls-8" d="M535.12,198.57a5,5,0,1,0-2.56,4.58A5,5,0,0,0,535.12,198.57Z" transform="translate(-459.4 -193.46)"/><path class="cls-9" d="M530.07,193.72a5,5,0,0,1,2.49,9.43,4.92,4.92,0,0,1-2.47.66,5.1,5.1,0,0,1-2.17-.49,5,5,0,0,1,2.15-9.6m0-.26a5.31,5.31,0,0,0-4.61,7.92,5.38,5.38,0,0,0,4.63,2.69,5.3,5.3,0,0,0,5.28-5.51,5.2,5.2,0,0,0-.68-2.41,5.32,5.32,0,0,0-4.62-2.69Z" transform="translate(-459.4 -193.46)"/><path class="cls-7" d="M527.58,196.42a4.62,4.62,0,0,1,3.49-1.61,3.79,3.79,0,0,0-4.68,5.39l.05.09A5.43,5.43,0,0,1,527.58,196.42Z" transform="translate(-459.4 -193.46)"/><path class="cls-2" d="M492.76,200.12a7.34,7.34,0,1,1-9.64-3.86A7.34,7.34,0,0,1,492.76,200.12Z" transform="translate(-459.4 -193.46)"/><path class="cls-12" d="M491.73,199.92a6.27,6.27,0,1,1-8.24-3.29A6.27,6.27,0,0,1,491.73,199.92Z" transform="translate(-459.4 -193.46)"/><path class="cls-13" d="M486,196.12a6.27,6.27,0,0,1,2.48,12,6.18,6.18,0,0,1-2.47.51,6.27,6.27,0,0,1-2.48-12,6.39,6.39,0,0,1,2.47-.51m0-.26h0a6.37,6.37,0,0,0-2.57.54,6.53,6.53,0,1,0,8.58,3.42,6.54,6.54,0,0,0-6-4Z" transform="translate(-459.4 -193.46)"/><path class="cls-12" d="M492.34,199.28a6.27,6.27,0,1,1-8.24-3.3A6.27,6.27,0,0,1,492.34,199.28Z" transform="translate(-459.4 -193.46)"/><path class="cls-13" d="M486.58,195.48a6.28,6.28,0,0,1,2.48,12,6.4,6.4,0,0,1-2.48.51A6.28,6.28,0,0,1,484.1,196a6.39,6.39,0,0,1,2.48-.5m0-.26h0a6.53,6.53,0,1,0,0,13.06,6.41,6.41,0,0,0,2.58-.53,6.53,6.53,0,0,0-2.58-12.53Z" transform="translate(-459.4 -193.46)"/><path class="cls-14" d="M492.61,202.71l-.77-.9a4.67,4.67,0,0,0-4.68-5.48l-1.1-1.29-2.29,2.86a4.65,4.65,0,0,0,5.78,7.13l.27-.17h0l.21-.17.15-.11Z" transform="translate(-459.4 -193.46)"/><path class="cls-15" d="M486.06,195l1.1,1.29h.09a4.67,4.67,0,0,1,4.59,5.48l.77.9-2.42,1.88-.15.11-.21.17h0l-.27.17a4.65,4.65,0,0,1-5.78-7.13l2.29-2.86m0-.4-.19.24-2.3,2.85a4.91,4.91,0,0,0,6.11,7.52l.1-.06h0l.2-.13.21-.16.12-.1,0,0,2.42-1.87.21-.17-.18-.2-.69-.82a4.91,4.91,0,0,0-4.83-5.66l-1-1.19-.2-.24Z" transform="translate(-459.4 -193.46)"/><path class="cls-12" d="M494.51,198.57a5,5,0,1,0-2.56,4.58A5,5,0,0,0,494.51,198.57Z" transform="translate(-459.4 -193.46)"/><path class="cls-13" d="M489.47,193.72a5,5,0,1,1-2.49.66,5,5,0,0,1,2.49-.66m0-.26a5.33,5.33,0,0,0-2.61.69,5.31,5.31,0,0,0-2,7.23,5.33,5.33,0,0,0,2.36,2.17,5.3,5.3,0,0,0,6.87-7.4,5.31,5.31,0,0,0-4.61-2.69Z" transform="translate(-459.4 -193.46)"/><path class="cls-7" d="M487,196.42a4.63,4.63,0,0,1,3.49-1.61,3.79,3.79,0,0,0-4.68,5.39l.06.09A5.38,5.38,0,0,1,487,196.42Z" transform="translate(-459.4 -193.46)"/><path class="cls-2" d="M514,200.13a7.32,7.32,0,1,1-9.61-3.83A7.34,7.34,0,0,1,514,200.13Z" transform="translate(-459.4 -193.46)"/><path class="cls-16" d="M513,199.92a6.27,6.27,0,1,1-8.24-3.29A6.27,6.27,0,0,1,513,199.92Z" transform="translate(-459.4 -193.46)"/><path class="cls-17" d="M507.23,196.12a6.28,6.28,0,1,1-2.47.51,6.28,6.28,0,0,1,2.47-.51m0-.26h0a6.54,6.54,0,0,0-6,9.11,6.53,6.53,0,1,0,6-9.11Z" transform="translate(-459.4 -193.46)"/><path class="cls-16" d="M513.61,199.28a6.27,6.27,0,1,1-8.24-3.3A6.28,6.28,0,0,1,513.61,199.28Z" transform="translate(-459.4 -193.46)"/><path class="cls-17" d="M507.84,195.48a6.27,6.27,0,0,1,2.48,12,6.39,6.39,0,0,1-2.47.51,6.28,6.28,0,1,1,0-12.55m0-.26h0a6.54,6.54,0,0,0,0,13.07,6.37,6.37,0,0,0,2.57-.54,6.53,6.53,0,0,0-2.58-12.53Z" transform="translate(-459.4 -193.46)"/><path class="cls-18" d="M513.87,202.71l-.77-.9a4.65,4.65,0,0,0-4.68-5.48L507.33,195,505,197.9a4.65,4.65,0,0,0,5.78,7.13l.27-.17h0l.21-.17.14-.11Z" transform="translate(-459.4 -193.46)"/><path class="cls-19" d="M507.33,195l1.09,1.29h.1a4.66,4.66,0,0,1,4.05,2.36,4.59,4.59,0,0,1,.53,3.12l.77.9-2.42,1.88-.14.11-.21.17h0l-.27.17A4.65,4.65,0,0,1,505,197.9l2.29-2.86m0-.4-.19.24-2.29,2.85a4.91,4.91,0,0,0,6.1,7.52l.1-.06h0l.19-.13.22-.16.12-.1,0,0,2.42-1.87.21-.17-.17-.2-.7-.82a4.91,4.91,0,0,0-4.83-5.66l-1-1.19-.2-.24Z" transform="translate(-459.4 -193.46)"/><path class="cls-16" d="M515.77,198.57a4.9,4.9,0,0,0-.65-2.29,5,5,0,1,0,.65,2.29Z" transform="translate(-459.4 -193.46)"/><path class="cls-17" d="M510.73,193.72a5,5,0,0,1,4.39,2.56,4.9,4.9,0,0,1,.65,2.29,5,5,0,0,1-2.55,4.58,4.92,4.92,0,0,1-2.47.66,5.1,5.1,0,0,1-4.41-2.56,5,5,0,0,1,1.91-6.87,5,5,0,0,1,2.48-.66m0-.26a5.33,5.33,0,0,0-2.61.69,5.32,5.32,0,0,0-2,7.23,5.3,5.3,0,0,0,9.91-2.82,5.2,5.2,0,0,0-.68-2.41,5.32,5.32,0,0,0-4.62-2.69Z" transform="translate(-459.4 -193.46)"/><path class="cls-7" d="M508.24,196.42a4.62,4.62,0,0,1,3.49-1.61,3.79,3.79,0,0,0-4.68,5.39l.05.09A5.43,5.43,0,0,1,508.24,196.42Z" transform="translate(-459.4 -193.46)"/></g></g></g></svg>