<svg xmlns="http://www.w3.org/2000/svg" viewBox="0 0 205.47 110.91"><defs><style>.cls-1{fill:#feaf00;}.cls-2{fill:#fe2a00;}.cls-3{fill:#fef000;}.cls-4{fill:#1ea614;}.cls-5{fill:#9fcc00;}.cls-6{fill:#101012;}.cls-7{opacity:0.3;}.cls-8{fill:#1b1b1f;}.cls-9{opacity:0.36;}</style></defs><title>Layer 5</title><g id="Layer_2" data-name="Layer 2"><g id="Layer_1-2" data-name="Layer 1"><g id="Layer_2-2" data-name="Layer 2"><g id="Layer_5" data-name="Layer 5"><path class="cls-1" d="M139,75.71l45.76-33.24a101.64,101.64,0,0,0-50.7-36.86L116.6,59.4A45,45,0,0,1,139,75.71Z"/><path class="cls-2" d="M147.6,102.07h56.53a101,101,0,0,0-19.36-59.6L139,75.71A44.57,44.57,0,0,1,147.6,102.07Z"/><path class="cls-3" d="M102.73,57.2a44.81,44.81,0,0,1,13.87,2.2L134.07,5.61a101.88,101.88,0,0,0-62.68,0L88.87,59.4A44.79,44.79,0,0,1,102.73,57.2Z"/><path class="cls-4" d="M66.45,75.71,20.7,42.47a100.9,100.9,0,0,0-19.37,59.6H57.86A44.64,44.64,0,0,1,66.45,75.71Z"/><path class="cls-5" d="M88.87,59.4,71.39,5.61A101.61,101.61,0,0,0,20.7,42.47L66.45,75.71A45.1,45.1,0,0,1,88.87,59.4Z"/><circle class="cls-6" cx="102.73" cy="102.73" r="8.17" transform="translate(-20.79 179.22) rotate(-76.76)"/><path class="cls-7" d="M102.73,45.82l4.09,56.25h-9l4.09-56.25A.43.43,0,0,1,102.73,45.82Z"/><path class="cls-6" d="M103.16,46.49l4.09,56.24h-9l4.09-56.24A.43.43,0,0,1,103.16,46.49Z"/><path class="cls-8" d="M102.73,107.33a4.6,4.6,0,1,1,4.6-4.6A4.6,4.6,0,0,1,102.73,107.33Z"/><path class="cls-9" d="M106.74,95.61l-3.58-49.12a.41.41,0,0,0-.43-.4v64.82a8.17,8.17,0,0,0,4-15.3Z"/><path class="cls-8" d="M185.85,42.35A102.74,102.74,0,0,0,0,102.73H8.56a94.18,94.18,0,0,1,188.35,0h8.56A102.29,102.29,0,0,0,185.85,42.35Z"/><path class="cls-6" d="M10.7,102.73a92,92,0,0,1,184.07,0h2.14a94.18,94.18,0,0,0-188.35,0H10.7Z"/></g></g></g></g></svg>