<svg xmlns="http://www.w3.org/2000/svg" viewBox="0 0 23.23 39.37"><defs><style>.cls-1{fill:#6a9aa6;}.cls-2{fill:#65483d;}.cls-3{fill:#705c32;}.cls-4{fill:#4ea637;}.cls-5{fill:#7cbd39;}.cls-6{fill:#af472e;fill-rule:evenodd;}.cls-7{fill:#df2020;}</style></defs><title>Asset 7</title><g id="Layer_2" data-name="Layer 2"><g id="Layer_1-2" data-name="Layer 1"><rect class="cls-1" x="1.93" y="30.32" width="19.15" height="9.05"/><rect class="cls-2" x="6.88" y="12.24" width="9.11" height="14.63"/><rect class="cls-3" x="6.88" y="26.87" width="9.11" height="9.11"/><rect class="cls-4" x="13.66" y="20.05" width="9.57" height="5.6"/><rect class="cls-5" x="13.66" y="11.05" width="9.57" height="9"/><rect class="cls-4" y="14.67" width="19.15" height="9.05"/><rect class="cls-5" width="19.15" height="14.67"/><polygon class="cls-6" points="5.44 13.36 6.85 13.36 6.85 17.32 2.89 17.32 2.89 16 5.44 16 5.44 13.36"/><rect class="cls-7" x="2.89" y="13.36" width="2.55" height="2.63"/><polygon class="cls-6" points="13.08 12.03 15.63 12.03 15.63 9.39 17.04 9.39 17.04 13.35 13.08 13.35 13.08 12.03"/><rect class="cls-7" x="13.08" y="9.39" width="2.55" height="2.64"/><polygon class="cls-6" points="11.34 20.47 12.74 20.47 12.74 24.42 8.79 24.42 8.79 23.1 11.34 23.1 11.34 20.47"/><rect class="cls-7" x="8.79" y="20.47" width="2.55" height="2.64"/></g></g></svg>